<svg xmlns="http://www.w3.org/2000/svg" width="23.43" height="23.081" viewBox="0 0 23.43 23.081"><defs><style>.a{opacity:0.5;}</style></defs><g class="a" transform="translate(0 -3.81)"><g transform="translate(1.354 3.81)"><g transform="translate(0 0)"><path d="M49.83,12.866a1.545,1.545,0,0,0-.856-2.635l-5.127-.745a.309.309,0,0,1-.233-.169L41.322,4.671a1.545,1.545,0,0,0-2.771,0L36.258,9.317a.309.309,0,0,1-.233.169l-5.127.745a1.545,1.545,0,0,0-.856,2.635l3.71,3.616a.309.309,0,0,1,.089.274l-.876,5.106a1.545,1.545,0,0,0,2.242,1.629l4.585-2.411a.309.309,0,0,1,.288,0l4.585,2.411a1.545,1.545,0,0,0,2.242-1.629l-.876-5.106a.309.309,0,0,1,.089-.274Zm-5.017,4.1.876,5.106a.309.309,0,0,1-.448.326l-4.585-2.411a1.545,1.545,0,0,0-1.438,0L34.632,22.4a.309.309,0,0,1-.448-.326l.876-5.106a1.545,1.545,0,0,0-.444-1.368l-3.71-3.616a.309.309,0,0,1,.171-.527l5.127-.745a1.545,1.545,0,0,0,1.163-.845l2.293-4.646a.309.309,0,0,1,.554,0h0l2.293,4.646a1.545,1.545,0,0,0,1.163.845l5.127.745a.309.309,0,0,1,.171.527L45.258,15.6A1.545,1.545,0,0,0,44.813,16.965Z" transform="translate(-29.574 -3.81)"/></g></g><g transform="translate(17.298 4.553)"><path d="M379.638,20.163a.618.618,0,0,0-.863.137l-.656.9a.618.618,0,1,0,1,.727l.656-.9A.618.618,0,0,0,379.638,20.163Z" transform="translate(-378.001 -20.045)"/></g><g transform="translate(4.237 4.549)"><g transform="translate(0 0)"><path d="M94.364,21.124l-.656-.9a.618.618,0,1,0-1,.727l.656.9a.618.618,0,1,0,1-.727Z" transform="translate(-92.59 -19.966)"/></g></g><g transform="translate(0 17.249)"><path d="M2.268,297.921a.618.618,0,0,0-.779-.4l-1.062.345a.618.618,0,1,0,.382,1.176l1.062-.345A.618.618,0,0,0,2.268,297.921Z" transform="translate(0 -297.493)"/></g><g transform="translate(11.097 24.539)"><path d="M243.117,456.786a.618.618,0,0,0-.618.618v1.116a.618.618,0,0,0,1.236,0V457.4A.618.618,0,0,0,243.117,456.786Z" transform="translate(-242.499 -456.786)"/></g><g transform="translate(21.132 17.25)"><path d="M463.654,297.888l-1.062-.345a.618.618,0,0,0-.382,1.176l1.062.345a.618.618,0,0,0,.382-1.176Z" transform="translate(-461.783 -297.513)"/></g></g></svg>