<svg xmlns="http://www.w3.org/2000/svg" width="29.461" height="27.805" viewBox="0 0 29.461 27.805"><defs><style>.a{fill:#fff;}.b{fill:#042359;}</style></defs><g transform="translate(0 0)"><g transform="translate(0 0)"><path class="a" d="M8,42h.926v2.779H8Z" transform="translate(-5.188 -23.46)"/><path class="a" d="M12,42h.926v2.779H12Z" transform="translate(-7.335 -23.46)"/><path class="a" d="M16,42h.926v2.779H16Z" transform="translate(-9.482 -23.46)"/><path class="a" d="M29.794,8.955c0-.366,0-1.121-4.178-1.58a5.553,5.553,0,0,0-11.1,0c-4.178.459-4.178,1.214-4.178,1.58,0,.908,2.075,1.371,4.368,1.612a1.343,1.343,0,0,0-.2.7V12.2a1.4,1.4,0,0,0,.926,1.311v5.577a5.1,5.1,0,0,0-3.243,2.094V17.293A1.394,1.394,0,0,0,10.8,15.9H9.412V12.661a1.394,1.394,0,0,0-1.39-1.39H6.169a1.394,1.394,0,0,0-1.39,1.39V15.9H3.39A1.394,1.394,0,0,0,2,17.293v9.265a1.394,1.394,0,0,0,1.39,1.39v.463a1.39,1.39,0,0,0,2.779,0v-.463H8.022v.463a1.39,1.39,0,0,0,2.779,0v-.463h.463a.463.463,0,0,0,.366.454l6.513,1.39a.692.692,0,0,0,.1.009h3.664a.692.692,0,0,0,.1-.009l6.5-1.39a.463.463,0,0,0,.366-.454V24.089a5.119,5.119,0,0,0-4.169-5V13.509a1.4,1.4,0,0,0,.926-1.311v-.926a1.367,1.367,0,0,0-.2-.7c2.293-.241,4.368-.7,4.368-1.612ZM9.412,16.83H10.8a.463.463,0,0,1,.463.463v1.39H9.875a.463.463,0,0,1-.463-.463ZM5.706,12.661a.463.463,0,0,1,.463-.463H8.022a.463.463,0,0,1,.463.463V15.9H5.706ZM2.926,17.293a.463.463,0,0,1,.463-.463h1.39v1.39a.463.463,0,0,1-.463.463H2.926Zm.463,9.728a.463.463,0,0,1-.463-.463v-1.39h1.39a.463.463,0,0,1,.463.463v1.39Zm1.853,1.39a.463.463,0,0,1-.926,0v-.463h.926Zm4.632,0a.463.463,0,0,1-.926,0v-.463h.926Zm1.39-4.322v2.932H5.706v-1.39a1.394,1.394,0,0,0-1.39-1.39H2.926V19.61h1.39a1.394,1.394,0,0,0,1.39-1.39V16.83H8.485v1.39a1.394,1.394,0,0,0,1.39,1.39h1.39v4.169h.014C11.274,23.881,11.265,23.982,11.265,24.089Zm8.8-21.156A4.646,4.646,0,0,1,24.323,5.74a16.66,16.66,0,0,1-4.257.435,16.661,16.661,0,0,1-4.257-.435,4.646,4.646,0,0,1,4.257-2.807ZM15.434,7.566a4.54,4.54,0,0,1,.1-.945,17.3,17.3,0,0,0,4.535.482A17.3,17.3,0,0,0,24.6,6.621a4.54,4.54,0,0,1,.1.945v.343a12.389,12.389,0,0,1-4.632.584,12.389,12.389,0,0,1-4.632-.584ZM13.882,25.789l.445,2.242-2.135-.459V24.089a4.194,4.194,0,0,1,2.135-3.632l-.445,2.237a7.736,7.736,0,0,0,0,3.094ZM26.25,22.695l-.445-2.237a4.194,4.194,0,0,1,2.135,3.632v3.484l-2.14.459.449-2.242a7.736,7.736,0,0,0,0-3.094Zm-1.473-2.65.565,2.835a6.743,6.743,0,0,1,0,2.724l-.528,2.64-2.96.63H18.292l-2.979-.635L14.79,25.6a6.743,6.743,0,0,1,0-2.724l.565-2.835a3.9,3.9,0,0,1,.417-.083l.662-.093c.486,2.418,3.257,4.22,3.382,4.3a.459.459,0,0,0,.5,0c.125-.079,2.9-1.881,3.382-4.3l.662.093c.139.019.278.051.417.083Zm-2.923-.44.922.13c-.357,1.631-2.061,3.006-2.71,3.479-.649-.472-2.353-1.844-2.71-3.479l.922-.13a.463.463,0,0,0,.4-.459v-1.6a4.638,4.638,0,0,0,2.779,0v1.6a.463.463,0,0,0,.4.459Zm.528-.862V17.131a4.572,4.572,0,0,0,1.39-1.237v3.048Zm-4.632,0-1.39.2V15.894a4.023,4.023,0,0,0,.431.5,4.444,4.444,0,0,0,.959.737ZM24.7,12.2a.463.463,0,0,1-.463.463.463.463,0,0,0-.463.463,3.706,3.706,0,1,1-7.412,0,.463.463,0,0,0-.463-.463.44.44,0,0,1-.329-.144.43.43,0,0,1-.134-.32v-.926a.463.463,0,0,1,.463-.463.44.44,0,0,0,.3-.12c1.566.1,3.048.12,3.868.12s2.3-.019,3.868-.12a.44.44,0,0,0,.3.12.44.44,0,0,1,.329.144.43.43,0,0,1,.134.32ZM20.066,9.882c-4.637,0-7.829-.51-8.658-.922A11.353,11.353,0,0,1,14.581,8.3c.528,1,3.947,1.116,5.485,1.116,4.109,0,5.216-.653,5.48-1.116a11.406,11.406,0,0,1,3.178.658c-.829.412-4.021.922-8.658.922Z" transform="translate(-1.967 -1.996)"/><path class="a" d="M3.12,8.874a.463.463,0,0,0,.352.046l8.949-2.4a1.391,1.391,0,1,0-.72-2.687L9.787,4.35,8.355,2.184a.463.463,0,0,0-.5-.192l-1.79.479a.463.463,0,0,0-.328.567l.6,2.237-1.6.43L2.625,4.492a.463.463,0,0,0-.679.521L2.9,8.593a.463.463,0,0,0,.216.281ZM4.431,6.6a.463.463,0,0,0,.351.046l2.237-.6a.463.463,0,0,0,.328-.567l-.6-2.237,1.019-.273L9.2,5.14a.463.463,0,0,0,.506.192l2.237-.6a.463.463,0,0,1,.24.895L3.68,7.905,3.13,5.854Z" transform="translate(-1.93 -1.977)"/></g><g transform="translate(1.635 0)"><path class="b" d="M8,42h.926v2.779H8Z" transform="translate(-5.188 -23.46)"/><path class="b" d="M12,42h.926v2.779H12Z" transform="translate(-7.335 -23.46)"/><path class="b" d="M16,42h.926v2.779H16Z" transform="translate(-9.482 -23.46)"/><path class="b" d="M29.794,8.955c0-.366,0-1.121-4.178-1.58a5.553,5.553,0,0,0-11.1,0c-4.178.459-4.178,1.214-4.178,1.58,0,.908,2.075,1.371,4.368,1.612a1.343,1.343,0,0,0-.2.7V12.2a1.4,1.4,0,0,0,.926,1.311v5.577a5.1,5.1,0,0,0-3.243,2.094V17.293A1.394,1.394,0,0,0,10.8,15.9H9.412V12.661a1.394,1.394,0,0,0-1.39-1.39H6.169a1.394,1.394,0,0,0-1.39,1.39V15.9H3.39A1.394,1.394,0,0,0,2,17.293v9.265a1.394,1.394,0,0,0,1.39,1.39v.463a1.39,1.39,0,0,0,2.779,0v-.463H8.022v.463a1.39,1.39,0,0,0,2.779,0v-.463h.463a.463.463,0,0,0,.366.454l6.513,1.39a.692.692,0,0,0,.1.009h3.664a.692.692,0,0,0,.1-.009l6.5-1.39a.463.463,0,0,0,.366-.454V24.089a5.119,5.119,0,0,0-4.169-5V13.509a1.4,1.4,0,0,0,.926-1.311v-.926a1.367,1.367,0,0,0-.2-.7c2.293-.241,4.368-.7,4.368-1.612ZM9.412,16.83H10.8a.463.463,0,0,1,.463.463v1.39H9.875a.463.463,0,0,1-.463-.463ZM5.706,12.661a.463.463,0,0,1,.463-.463H8.022a.463.463,0,0,1,.463.463V15.9H5.706ZM2.926,17.293a.463.463,0,0,1,.463-.463h1.39v1.39a.463.463,0,0,1-.463.463H2.926Zm.463,9.728a.463.463,0,0,1-.463-.463v-1.39h1.39a.463.463,0,0,1,.463.463v1.39Zm1.853,1.39a.463.463,0,0,1-.926,0v-.463h.926Zm4.632,0a.463.463,0,0,1-.926,0v-.463h.926Zm1.39-4.322v2.932H5.706v-1.39a1.394,1.394,0,0,0-1.39-1.39H2.926V19.61h1.39a1.394,1.394,0,0,0,1.39-1.39V16.83H8.485v1.39a1.394,1.394,0,0,0,1.39,1.39h1.39v4.169h.014C11.274,23.881,11.265,23.982,11.265,24.089Zm8.8-21.156A4.646,4.646,0,0,1,24.323,5.74a16.66,16.66,0,0,1-4.257.435,16.661,16.661,0,0,1-4.257-.435,4.646,4.646,0,0,1,4.257-2.807ZM15.434,7.566a4.54,4.54,0,0,1,.1-.945,17.3,17.3,0,0,0,4.535.482A17.3,17.3,0,0,0,24.6,6.621a4.54,4.54,0,0,1,.1.945v.343a12.389,12.389,0,0,1-4.632.584,12.389,12.389,0,0,1-4.632-.584ZM13.882,25.789l.445,2.242-2.135-.459V24.089a4.194,4.194,0,0,1,2.135-3.632l-.445,2.237a7.736,7.736,0,0,0,0,3.094ZM26.25,22.695l-.445-2.237a4.194,4.194,0,0,1,2.135,3.632v3.484l-2.14.459.449-2.242a7.736,7.736,0,0,0,0-3.094Zm-1.473-2.65.565,2.835a6.743,6.743,0,0,1,0,2.724l-.528,2.64-2.96.63H18.292l-2.979-.635L14.79,25.6a6.743,6.743,0,0,1,0-2.724l.565-2.835a3.9,3.9,0,0,1,.417-.083l.662-.093c.486,2.418,3.257,4.22,3.382,4.3a.459.459,0,0,0,.5,0c.125-.079,2.9-1.881,3.382-4.3l.662.093c.139.019.278.051.417.083Zm-2.923-.44.922.13c-.357,1.631-2.061,3.006-2.71,3.479-.649-.472-2.353-1.844-2.71-3.479l.922-.13a.463.463,0,0,0,.4-.459v-1.6a4.638,4.638,0,0,0,2.779,0v1.6a.463.463,0,0,0,.4.459Zm.528-.862V17.131a4.572,4.572,0,0,0,1.39-1.237v3.048Zm-4.632,0-1.39.2V15.894a4.023,4.023,0,0,0,.431.5,4.444,4.444,0,0,0,.959.737ZM24.7,12.2a.463.463,0,0,1-.463.463.463.463,0,0,0-.463.463,3.706,3.706,0,1,1-7.412,0,.463.463,0,0,0-.463-.463.44.44,0,0,1-.329-.144.43.43,0,0,1-.134-.32v-.926a.463.463,0,0,1,.463-.463.44.44,0,0,0,.3-.12c1.566.1,3.048.12,3.868.12s2.3-.019,3.868-.12a.44.44,0,0,0,.3.12.44.44,0,0,1,.329.144.43.43,0,0,1,.134.32ZM20.066,9.882c-4.637,0-7.829-.51-8.658-.922A11.353,11.353,0,0,1,14.581,8.3c.528,1,3.947,1.116,5.485,1.116,4.109,0,5.216-.653,5.48-1.116a11.406,11.406,0,0,1,3.178.658c-.829.412-4.021.922-8.658.922Z" transform="translate(-1.967 -1.996)"/><path class="b" d="M3.12,8.874a.463.463,0,0,0,.352.046l8.949-2.4a1.391,1.391,0,1,0-.72-2.687L9.787,4.35,8.355,2.184a.463.463,0,0,0-.5-.192l-1.79.479a.463.463,0,0,0-.328.567l.6,2.237-1.6.43L2.625,4.492a.463.463,0,0,0-.679.521L2.9,8.593a.463.463,0,0,0,.216.281ZM4.431,6.6a.463.463,0,0,0,.351.046l2.237-.6a.463.463,0,0,0,.328-.567l-.6-2.237,1.019-.273L9.2,5.14a.463.463,0,0,0,.506.192l2.237-.6a.463.463,0,0,1,.24.895L3.68,7.905,3.13,5.854Z" transform="translate(-1.93 -1.977)"/></g></g></svg>