<svg xmlns="http://www.w3.org/2000/svg" width="31.592" height="30.753" viewBox="0 0 31.592 30.753"><defs><style>.a{fill:#fff;}.b{fill:#042359;}</style></defs><g transform="translate(0 0)"><path class="a" d="M25.538,32.4h2.724a1.527,1.527,0,0,0,.41,1.646L32.88,37.9h0l.01.01,6.65,5.764h-.164a.513.513,0,0,0-.513.513v2.05a.513.513,0,0,0,.513.513h6.151a.513.513,0,0,0,.513-.513V44.19a.513.513,0,0,0-.513-.513v-.813l.274-.274a2.546,2.546,0,0,0,.751-1.812v-3.14l1.858-4.088a1.53,1.53,0,0,0,.05-1.149h3.73a1.539,1.539,0,0,0,1.538-1.538V29.839a.513.513,0,0,0-.513-.513h-2.05v-.513A10.776,10.776,0,0,0,40.4,18.05V17.025h.513a.513.513,0,1,0,0-1.025h-4.1a.513.513,0,1,0,0,1.025h.513V18.05A10.776,10.776,0,0,0,26.563,28.814v.513h-2.05a.513.513,0,0,0-.513.513v1.025A1.539,1.539,0,0,0,25.538,32.4Zm3.7.327a.5.5,0,0,1,.478-.327H30a.514.514,0,0,1,.467.3l.385.848h0l.864,1.9-2.355-2.158a.5.5,0,0,1-.131-.564Zm15.782,13H39.889V44.7h5.126Zm2.427-13.091a.5.5,0,0,1,.036.49l-1.9,4.189a.513.513,0,0,0-.046.212v3.251a1.528,1.528,0,0,1-.45,1.087l-.425.425a.513.513,0,0,0-.15.362v1.025h-3.4l-7.459-6.465-1.858-4.087a.513.513,0,0,1,.467-.725h.337a.51.51,0,0,1,.458.283l1.767,3.534a.513.513,0,0,0,.268.247l5.126,2.05a.513.513,0,0,0,.315.021l2.05-.513a.513.513,0,0,0,.326-.252l2.784-5.1a.513.513,0,0,1,.45-.267h.875A.5.5,0,0,1,47.441,32.637ZM34.055,32.4H44.664L42.11,37.084l-1.671.418-4.79-1.916Zm4.3-15.377h1.025V18.05H38.351ZM27.588,28.814a9.75,9.75,0,0,1,9.738-9.738H40.4a9.75,9.75,0,0,1,9.738,9.738v.513H27.588Zm-2.563,1.538H52.7v.513a.513.513,0,0,1-.513.513H25.538a.513.513,0,0,1-.513-.513Z" transform="translate(-24 -16)"/><path class="b" d="M25.538,32.4h2.724a1.527,1.527,0,0,0,.41,1.646L32.88,37.9h0l.01.01,6.65,5.764h-.164a.513.513,0,0,0-.513.513v2.05a.513.513,0,0,0,.513.513h6.151a.513.513,0,0,0,.513-.513V44.19a.513.513,0,0,0-.513-.513v-.813l.274-.274a2.546,2.546,0,0,0,.751-1.812v-3.14l1.858-4.088a1.53,1.53,0,0,0,.05-1.149h3.73a1.539,1.539,0,0,0,1.538-1.538V29.839a.513.513,0,0,0-.513-.513h-2.05v-.513A10.776,10.776,0,0,0,40.4,18.05V17.025h.513a.513.513,0,1,0,0-1.025h-4.1a.513.513,0,1,0,0,1.025h.513V18.05A10.776,10.776,0,0,0,26.563,28.814v.513h-2.05a.513.513,0,0,0-.513.513v1.025A1.539,1.539,0,0,0,25.538,32.4Zm3.7.327a.5.5,0,0,1,.478-.327H30a.514.514,0,0,1,.467.3l.385.848h0l.864,1.9-2.355-2.158a.5.5,0,0,1-.131-.564Zm15.782,13H39.889V44.7h5.126Zm2.427-13.091a.5.5,0,0,1,.036.49l-1.9,4.189a.513.513,0,0,0-.046.212v3.251a1.528,1.528,0,0,1-.45,1.087l-.425.425a.513.513,0,0,0-.15.362v1.025h-3.4l-7.459-6.465-1.858-4.087a.513.513,0,0,1,.467-.725h.337a.51.51,0,0,1,.458.283l1.767,3.534a.513.513,0,0,0,.268.247l5.126,2.05a.513.513,0,0,0,.315.021l2.05-.513a.513.513,0,0,0,.326-.252l2.784-5.1a.513.513,0,0,1,.45-.267h.875A.5.5,0,0,1,47.441,32.637ZM34.055,32.4H44.664L42.11,37.084l-1.671.418-4.79-1.916Zm4.3-15.377h1.025V18.05H38.351ZM27.588,28.814a9.75,9.75,0,0,1,9.738-9.738H40.4a9.75,9.75,0,0,1,9.738,9.738v.513H27.588Zm-2.563,1.538H52.7v.513a.513.513,0,0,1-.513.513H25.538a.513.513,0,0,1-.513-.513Z" transform="translate(-22.137 -16)"/></g></svg>