<svg xmlns="http://www.w3.org/2000/svg" width="34.315" height="28.803" viewBox="0 0 34.315 28.803"><defs><style>.a{fill:#fff;}.b{fill:#042359;}</style></defs><g transform="translate(0 0)"><g transform="translate(0 0)"><g transform="translate(11.126 0)"><path class="a" d="M145.713,32.4a1.984,1.984,0,0,0-1.286-.275,5.12,5.12,0,0,0-2.3.964q-.9.689-2.066,1.653l-1.1.964c-.23.23-.459.413-.689.643a.8.8,0,0,1-.689.23c-.138-.046-.321-.092-.505-.138l-8.586-3.214c-.275-.092-.551-.184-.872-.275a1.446,1.446,0,0,0-1.377.23,4.1,4.1,0,0,0-1.194,1.332,1.086,1.086,0,0,0,.23,1.469,3.348,3.348,0,0,0,.505.413c1.561,1.1,3.168,2.158,4.729,3.26a7.294,7.294,0,0,1,1.561,1.286c.092.138.184.23.275.367l-2.984,2.847c-.321.321-.643.6-.964.918-.046,0-.092-.046-.138-.046l-.505-.23c-.413-.184-.781-.413-1.194-.6a1.324,1.324,0,0,0-1.469.184,8.816,8.816,0,0,0-.689.643.959.959,0,0,0-.092,1.377,2,2,0,0,0,.275.321l.872,1.1c1.01,1.332,2.066,2.663,3.122,3.949a1.51,1.51,0,0,0,1.469.6,1.722,1.722,0,0,0,1.148-1.1,2.137,2.137,0,0,0,.046-1.515l-.092-.413-.275-1.1c1.24-.964,2.479-1.882,3.673-2.847l.6-.459.138.23a7.092,7.092,0,0,1,.781,1.561l2.112,5.418c.138.321.23.643.367.918a1.157,1.157,0,0,0,1.056.781,1.222,1.222,0,0,0,.551-.138.923.923,0,0,0,.367-.184,2.422,2.422,0,0,0,1.377-1.561,3.8,3.8,0,0,0,.046-1.423l-1.1-8.035c-.092-.643-.184-1.332-.275-1.974a.655.655,0,0,1,.275-.689l.964-.826c.781-.643,1.515-1.286,2.3-1.928a7.456,7.456,0,0,0,1.423-1.607,4.821,4.821,0,0,0,.689-1.469A1.373,1.373,0,0,0,145.713,32.4Zm-.367,1.423a5.169,5.169,0,0,1-.6,1.24,5.6,5.6,0,0,1-1.24,1.377c-.735.643-1.515,1.286-2.3,1.928l-.918.781a1.569,1.569,0,0,0-.643,1.561c.092.643.184,1.286.275,1.974l1.1,8.035a2.546,2.546,0,0,1-.046,1.056,1.624,1.624,0,0,1-.872.964,2.24,2.24,0,0,1-.321.138c-.275.092-.367.046-.459-.184-.138-.275-.23-.6-.367-.918l-2.02-5.418a11.861,11.861,0,0,0-.872-1.7L135.8,44.2l-.413-.6-1.423,1.056c-1.286.964-2.571,1.974-3.811,2.939a.577.577,0,0,0-.23.689c.092.413.23.826.321,1.24l.092.413a1.368,1.368,0,0,1-.046.964.971.971,0,0,1-.643.551.464.464,0,0,1-.23-.092.553.553,0,0,1-.23-.23c-1.056-1.332-2.066-2.617-3.076-3.949l-.872-1.1a1.943,1.943,0,0,1-.23-.321.142.142,0,0,1-.046-.092l.092-.092a6.52,6.52,0,0,1,.6-.551.412.412,0,0,1,.505-.046c.413.184.781.367,1.194.6l.505.23.275.138a.632.632,0,0,0,.735-.092c.367-.367.735-.689,1.1-1.056l3.168-2.984.367-.367-.23-.321c-.046-.092-.092-.138-.138-.23a4.807,4.807,0,0,0-.367-.505,7.609,7.609,0,0,0-1.745-1.469c-1.561-1.056-3.168-2.158-4.729-3.26a2.524,2.524,0,0,1-.413-.321c-.138-.138-.138-.184-.046-.275a3.807,3.807,0,0,1,1.01-1.1c.092-.092.23-.138.551-.046a8.669,8.669,0,0,1,.826.275l8.586,3.214a4.71,4.71,0,0,0,.643.184,1.656,1.656,0,0,0,1.423-.413c.23-.23.459-.413.689-.643l1.1-.964c.781-.643,1.423-1.194,2.02-1.653a4.025,4.025,0,0,1,1.882-.781.876.876,0,0,1,.6.092C145.346,33.271,145.437,33.547,145.346,33.822Z" transform="translate(-124.068 -32.112)"/></g><g transform="translate(0 17.471)"><path class="a" d="M12.2,227.1a.494.494,0,0,0-.643-.092L.172,235.689a.494.494,0,0,0-.092.643.418.418,0,0,0,.367.184.653.653,0,0,0,.275-.092l11.387-8.678A.443.443,0,0,0,12.2,227.1Z" transform="translate(0 -226.931)"/></g><g transform="translate(5.923 19.629)"><path class="a" d="M73.842,251.167a.557.557,0,0,0-.689-.092L66.22,256.4a.494.494,0,0,0-.092.643.418.418,0,0,0,.367.184.652.652,0,0,0,.275-.092l6.979-5.326A.494.494,0,0,0,73.842,251.167Z" transform="translate(-66.048 -250.995)"/></g><g transform="translate(3.581 25.827)"><path class="a" d="M41.9,320.287a.494.494,0,0,0-.643-.092l-1.148.872a.494.494,0,0,0-.092.643.418.418,0,0,0,.367.184.653.653,0,0,0,.275-.092l1.148-.872A.494.494,0,0,0,41.9,320.287Z" transform="translate(-39.936 -320.115)"/></g><g transform="translate(2.066 20.685)"><g transform="translate(0 0)"><path class="a" d="M25,262.943a.494.494,0,0,0-.643-.092l-1.148.872a.494.494,0,0,0-.092.643.418.418,0,0,0,.367.184.653.653,0,0,0,.275-.092l1.148-.872A.494.494,0,0,0,25,262.943Z" transform="translate(-23.04 -262.771)"/></g></g><g transform="translate(4.408 15.68)"><g transform="translate(0 0)"><path class="a" d="M55.43,207.135a.494.494,0,0,0-.643-.092l-5.464,4.132a.494.494,0,0,0-.092.643A.567.567,0,0,0,49.6,212a.653.653,0,0,0,.275-.092l5.464-4.132A.494.494,0,0,0,55.43,207.135Z" transform="translate(-49.152 -206.963)"/></g></g></g><g transform="translate(0.949 1.197)"><g transform="translate(11.126 0)"><path class="b" d="M145.713,32.4a1.984,1.984,0,0,0-1.286-.275,5.12,5.12,0,0,0-2.3.964q-.9.689-2.066,1.653l-1.1.964c-.23.23-.459.413-.689.643a.8.8,0,0,1-.689.23c-.138-.046-.321-.092-.505-.138l-8.586-3.214c-.275-.092-.551-.184-.872-.275a1.446,1.446,0,0,0-1.377.23,4.1,4.1,0,0,0-1.194,1.332,1.086,1.086,0,0,0,.23,1.469,3.348,3.348,0,0,0,.505.413c1.561,1.1,3.168,2.158,4.729,3.26a7.294,7.294,0,0,1,1.561,1.286c.092.138.184.23.275.367l-2.984,2.847c-.321.321-.643.6-.964.918-.046,0-.092-.046-.138-.046l-.505-.23c-.413-.184-.781-.413-1.194-.6a1.324,1.324,0,0,0-1.469.184,8.816,8.816,0,0,0-.689.643.959.959,0,0,0-.092,1.377,2,2,0,0,0,.275.321l.872,1.1c1.01,1.332,2.066,2.663,3.122,3.949a1.51,1.51,0,0,0,1.469.6,1.722,1.722,0,0,0,1.148-1.1,2.137,2.137,0,0,0,.046-1.515l-.092-.413-.275-1.1c1.24-.964,2.479-1.882,3.673-2.847l.6-.459.138.23a7.092,7.092,0,0,1,.781,1.561l2.112,5.418c.138.321.23.643.367.918a1.157,1.157,0,0,0,1.056.781,1.222,1.222,0,0,0,.551-.138.923.923,0,0,0,.367-.184,2.422,2.422,0,0,0,1.377-1.561,3.8,3.8,0,0,0,.046-1.423l-1.1-8.035c-.092-.643-.184-1.332-.275-1.974a.655.655,0,0,1,.275-.689l.964-.826c.781-.643,1.515-1.286,2.3-1.928a7.456,7.456,0,0,0,1.423-1.607,4.821,4.821,0,0,0,.689-1.469A1.373,1.373,0,0,0,145.713,32.4Zm-.367,1.423a5.169,5.169,0,0,1-.6,1.24,5.6,5.6,0,0,1-1.24,1.377c-.735.643-1.515,1.286-2.3,1.928l-.918.781a1.569,1.569,0,0,0-.643,1.561c.092.643.184,1.286.275,1.974l1.1,8.035a2.546,2.546,0,0,1-.046,1.056,1.624,1.624,0,0,1-.872.964,2.24,2.24,0,0,1-.321.138c-.275.092-.367.046-.459-.184-.138-.275-.23-.6-.367-.918l-2.02-5.418a11.861,11.861,0,0,0-.872-1.7L135.8,44.2l-.413-.6-1.423,1.056c-1.286.964-2.571,1.974-3.811,2.939a.577.577,0,0,0-.23.689c.092.413.23.826.321,1.24l.092.413a1.368,1.368,0,0,1-.046.964.971.971,0,0,1-.643.551.464.464,0,0,1-.23-.092.553.553,0,0,1-.23-.23c-1.056-1.332-2.066-2.617-3.076-3.949l-.872-1.1a1.943,1.943,0,0,1-.23-.321.142.142,0,0,1-.046-.092l.092-.092a6.52,6.52,0,0,1,.6-.551.412.412,0,0,1,.505-.046c.413.184.781.367,1.194.6l.505.23.275.138a.632.632,0,0,0,.735-.092c.367-.367.735-.689,1.1-1.056l3.168-2.984.367-.367-.23-.321c-.046-.092-.092-.138-.138-.23a4.807,4.807,0,0,0-.367-.505,7.609,7.609,0,0,0-1.745-1.469c-1.561-1.056-3.168-2.158-4.729-3.26a2.524,2.524,0,0,1-.413-.321c-.138-.138-.138-.184-.046-.275a3.807,3.807,0,0,1,1.01-1.1c.092-.092.23-.138.551-.046a8.669,8.669,0,0,1,.826.275l8.586,3.214a4.71,4.71,0,0,0,.643.184,1.656,1.656,0,0,0,1.423-.413c.23-.23.459-.413.689-.643l1.1-.964c.781-.643,1.423-1.194,2.02-1.653a4.025,4.025,0,0,1,1.882-.781.876.876,0,0,1,.6.092C145.346,33.271,145.437,33.547,145.346,33.822Z" transform="translate(-124.068 -32.112)"/></g><g transform="translate(0 17.471)"><path class="b" d="M12.2,227.1a.494.494,0,0,0-.643-.092L.172,235.689a.494.494,0,0,0-.092.643.418.418,0,0,0,.367.184.653.653,0,0,0,.275-.092l11.387-8.678A.443.443,0,0,0,12.2,227.1Z" transform="translate(0 -226.931)"/></g><g transform="translate(5.923 19.629)"><path class="b" d="M73.842,251.167a.557.557,0,0,0-.689-.092L66.22,256.4a.494.494,0,0,0-.092.643.418.418,0,0,0,.367.184.652.652,0,0,0,.275-.092l6.979-5.326A.494.494,0,0,0,73.842,251.167Z" transform="translate(-66.048 -250.995)"/></g><g transform="translate(3.581 25.827)"><path class="b" d="M41.9,320.287a.494.494,0,0,0-.643-.092l-1.148.872a.494.494,0,0,0-.092.643.418.418,0,0,0,.367.184.653.653,0,0,0,.275-.092l1.148-.872A.494.494,0,0,0,41.9,320.287Z" transform="translate(-39.936 -320.115)"/></g><g transform="translate(2.066 20.685)"><g transform="translate(0 0)"><path class="b" d="M25,262.943a.494.494,0,0,0-.643-.092l-1.148.872a.494.494,0,0,0-.092.643.418.418,0,0,0,.367.184.653.653,0,0,0,.275-.092l1.148-.872A.494.494,0,0,0,25,262.943Z" transform="translate(-23.04 -262.771)"/></g></g><g transform="translate(4.408 15.68)"><g transform="translate(0 0)"><path class="b" d="M55.43,207.135a.494.494,0,0,0-.643-.092l-5.464,4.132a.494.494,0,0,0-.092.643A.567.567,0,0,0,49.6,212a.653.653,0,0,0,.275-.092l5.464-4.132A.494.494,0,0,0,55.43,207.135Z" transform="translate(-49.152 -206.963)"/></g></g></g></g></svg>