<svg xmlns="http://www.w3.org/2000/svg" width="32.5" height="32.5" viewBox="0 0 32.5 32.5"><defs><style>.a{fill:#c19f67;}</style></defs><path class="a" d="M151.258,20.128l-4.658-.745V18.26a6.359,6.359,0,0,0,3.809-5.819v-2.6h3.174a.635.635,0,0,0,.635-.635V8.477a2.767,2.767,0,0,0-2.764-2.764h-1.076a6.348,6.348,0,0,0-12.632,0h-1.076A2.767,2.767,0,0,0,133.9,8.477V9.2a.635.635,0,0,0,.635.635h3.174v2.6a6.359,6.359,0,0,0,3.809,5.819v1.123l-4.658.745a5.778,5.778,0,0,0-4.864,5.7v6.033a.635.635,0,0,0,.635.635h22.852a.635.635,0,0,0,.635-.635V25.832a5.778,5.778,0,0,0-4.864-5.7Zm-7.2-18.859A5.085,5.085,0,0,1,149.1,5.713H139.023A5.085,5.085,0,0,1,144.061,1.27Zm-5.078,11.172v-2.6h2.285a.635.635,0,0,0,0-1.27h-6.094V8.477a1.5,1.5,0,0,1,1.494-1.494h14.785a1.5,1.5,0,0,1,1.494,1.494v.093h-5.967a.635.635,0,0,0,0,1.27h2.158v2.6a5.078,5.078,0,1,1-10.156,0Zm3.274,8.109a.635.635,0,0,0,.534-.627V18.661a6.361,6.361,0,0,0,2.539,0v1.263a.635.635,0,0,0,.534.627l2.107.337L144.061,26.1l-3.911-5.214Zm3.137,10.68h-2.6v-2.92h2.6Zm-12.124-5.4a4.488,4.488,0,0,1,3.795-4.45l1.669-.267,4.445,5.926h-1.021a.635.635,0,0,0-.635.635V31.23h-4.443V27.676a.635.635,0,0,0-1.27,0V31.23H133.27Zm21.582,5.4h-2.539V27.676a.635.635,0,1,0-1.27,0V31.23h-4.38V27.676a.635.635,0,0,0-.635-.635h-1.085l4.445-5.926,1.669.267a4.488,4.488,0,0,1,3.795,4.45Z" transform="translate(-123.621)"/><path class="a" d="M290.51,201.951a.635.635,0,0,0-1.1-.635,1.268,1.268,0,0,1-2.2,0,.635.635,0,1,0-1.1.635,2.538,2.538,0,0,0,4.4,0Z" transform="translate(-267.872 -188.24)"/><path class="a" d="M.635,154.852a.635.635,0,1,0,0,1.27H4.443a.635.635,0,1,0,0-1.27H3.174V144.49l9.122-3.649a.635.635,0,0,0,0-1.179l-9.122-3.649v-3.379a.635.635,0,0,0-1.27,0v22.217Zm9.717-14.6-7.178,2.871v-5.742Z" transform="translate(0 -123.621)"/><ellipse class="a" cx="0.56" cy="0.841" rx="0.56" ry="0.841" transform="translate(19.929 8.405)"/></svg>