<svg xmlns="http://www.w3.org/2000/svg" width="20.984" height="18.706" viewBox="0 0 20.984 18.706"><defs><style>.a{fill:#920d20;}</style></defs><path class="a" d="M20.76,35.186,10.814,27.9a.545.545,0,0,0-.644,0L.223,35.186a.545.545,0,1,0,.644.88l9.625-7.047,9.625,7.047a.545.545,0,0,0,.644-.88Z" transform="translate(0.001 -27.798)"/><g transform="translate(2.313 8.391)"><path class="a" d="M72.264,232.543a.545.545,0,0,0-.545.545v8.678H67.357v-4.737a2.726,2.726,0,1,0-5.453,0v4.737H57.542v-8.678a.545.545,0,1,0-1.09,0v9.224a.545.545,0,0,0,.545.545h5.452a.545.545,0,0,0,.543-.5.411.411,0,0,0,0-.042v-5.282a1.636,1.636,0,0,1,3.272,0v5.282a.4.4,0,0,0,0,.042.545.545,0,0,0,.543.5h5.452a.545.545,0,0,0,.545-.545v-9.224A.545.545,0,0,0,72.264,232.543Z" transform="translate(-56.452 -232.543)"/></g></svg>