<svg xmlns="http://www.w3.org/2000/svg" width="34.992" height="31.192" viewBox="0 0 34.992 31.192"><defs><style>.a{fill:#c19f67;}</style></defs><g transform="translate(0 0)"><path class="a" d="M34.619,40.118,18.033,27.973a.909.909,0,0,0-1.074,0L.372,40.118a.909.909,0,1,0,1.074,1.467L17.5,29.833l16.05,11.751a.909.909,0,0,0,1.074-1.467Z" transform="translate(0.001 -27.798)"/></g><g transform="translate(3.858 13.993)"><path class="a" d="M82.819,232.543a.909.909,0,0,0-.909.909v14.472H74.636v-7.9a4.546,4.546,0,1,0-9.092,0v7.9H58.27V233.452a.909.909,0,1,0-1.818,0v15.381a.909.909,0,0,0,.909.909h9.092a.909.909,0,0,0,.906-.838.687.687,0,0,0,0-.071v-8.809a2.728,2.728,0,0,1,5.456,0v8.809a.666.666,0,0,0,0,.07.909.909,0,0,0,.906.839h9.092a.909.909,0,0,0,.909-.909V233.452A.909.909,0,0,0,82.819,232.543Z" transform="translate(-56.452 -232.543)"/></g></svg>