<svg xmlns="http://www.w3.org/2000/svg" width="17.524" height="17.525" viewBox="0 0 17.524 17.525"><defs><style>.a{fill:#c19f67;}</style></defs><g transform="translate(0 4.381)"><path class="a" d="M16.993,131.286a.548.548,0,0,0-.548.548v6.2l-4.381,1.752v-5.763a.548.548,0,1,0-1.1,0v5.762l-4.381-1.752v-8.677l2.538,1.015a.548.548,0,1,0,.406-1.017l-3.278-1.312h0l-.009,0a.543.543,0,0,0-.406,0l-.01,0h0L.36,130.23a.548.548,0,0,0-.344.508V140.6a.547.547,0,0,0,.751.508L6.04,139,11.3,141.1h0l.01,0a.543.543,0,0,0,.406,0l.01,0h0l5.466-2.186a.551.551,0,0,0,.343-.509v-6.572A.548.548,0,0,0,16.993,131.286Zm-11.5,6.748-4.381,1.752v-8.678l4.381-1.752Z" transform="translate(-0.016 -128)"/></g><g transform="translate(12.048 2.191)"><path class="a" d="M353.659,64a1.643,1.643,0,1,0,1.643,1.643A1.645,1.645,0,0,0,353.659,64Zm0,2.191a.548.548,0,1,1,.548-.548A.548.548,0,0,1,353.659,66.191Z" transform="translate(-352.016 -64)"/></g><g transform="translate(9.857)"><path class="a" d="M291.849,0a3.838,3.838,0,0,0-3.833,3.833c0,1.967,3.075,5.451,3.426,5.842a.547.547,0,0,0,.815,0c.35-.391,3.426-3.875,3.426-5.842A3.838,3.838,0,0,0,291.849,0Zm0,8.474c-1.2-1.418-2.738-3.6-2.738-4.641a2.738,2.738,0,0,1,5.476,0C294.588,4.877,293.045,7.056,291.849,8.474Z" transform="translate(-288.016)"/></g></svg>