<svg xmlns="http://www.w3.org/2000/svg" width="33" height="33" viewBox="0 0 33 33"><defs><style>.a{fill:#042359;}</style></defs><path class="a" d="M29.563,0H20.841a6.147,6.147,0,0,0-4.375,1.812L1.173,17.105a4.007,4.007,0,0,0,0,5.665l9.057,9.057a4.007,4.007,0,0,0,5.665,0L31.188,16.534A6.147,6.147,0,0,0,33,12.159V3.437A3.442,3.442,0,0,0,29.563,0Zm2.063,12.159a4.78,4.78,0,0,1-1.408,3.4L14.923,30.855a2.7,2.7,0,0,1-3.719,0L2.145,21.8a2.631,2.631,0,0,1,0-3.719L17.438,2.784a4.784,4.784,0,0,1,3.4-1.409h8.722a2.065,2.065,0,0,1,2.063,2.063v8.722Z"/><g transform="translate(22 4.125)"><path class="a" d="M344.771,64a3.437,3.437,0,1,0,3.437,3.437A3.442,3.442,0,0,0,344.771,64Zm0,5.5a2.063,2.063,0,1,1,2.063-2.062A2.065,2.065,0,0,1,344.771,69.5Z" transform="translate(-341.334 -64)"/></g></svg>