<svg xmlns="http://www.w3.org/2000/svg" width="33.333" height="33.333" viewBox="0 0 33.333 33.333"><defs><style>.a{fill:#042359;}</style></defs><g transform="translate(-0.001)"><g transform="translate(4.989 30.65)"><path class="a" d="M78.786,472.446l-.98-1.381a.651.651,0,1,0-1.062.754l.98,1.381a.651.651,0,0,0,1.062-.754Z" transform="translate(-76.624 -470.791)"/></g><g transform="translate(0.001 10.186)"><g transform="translate(0)"><path class="a" d="M14.663,178.814,13.6,173.73a9.588,9.588,0,0,0-4.055-6.019L7.264,166.18a2.291,2.291,0,0,0-2.9.3v-7.845a2.179,2.179,0,0,0-3.543-1.7,2.169,2.169,0,0,0-.815,1.7v10.094a6.306,6.306,0,0,0,1.17,3.67l1.161,1.635a.651.651,0,1,0,1.062-.754l-1.161-1.635a5.011,5.011,0,0,1-.93-2.916V158.631a.877.877,0,1,1,1.755,0v8.009a4.549,4.549,0,0,0,1.173,3.054c.032.039.066.077.1.115l1.419,1.507.67.713.007.006,1.005,1.07a.651.651,0,1,0,.949-.891l-1.644-1.749-1.493-1.589-.011-.012a1.1,1.1,0,0,1,.021-1.44.984.984,0,0,1,1.282-.164l2.277,1.531A8.292,8.292,0,0,1,12.322,174l1.067,5.084a.651.651,0,1,0,1.274-.267Z" transform="translate(-0.001 -156.451)"/></g></g><g transform="translate(3.639 28.748)"><path class="a" d="M57.069,441.854l0-.006a.651.651,0,0,0-1.06.756l0,.006a.651.651,0,0,0,1.06-.756Z" transform="translate(-55.884 -441.575)"/></g><g transform="translate(18.658 10.186)"><path class="a" d="M300.44,156.934a2.179,2.179,0,0,0-3.543,1.7v7.845a2.291,2.291,0,0,0-2.9-.3l-2.277,1.531a9.587,9.587,0,0,0-4.055,6.019l-1.067,5.084a.651.651,0,1,0,1.274.267L288.935,174a8.292,8.292,0,0,1,3.507-5.206l2.277-1.531a.984.984,0,0,1,1.282.164,1.1,1.1,0,0,1,.023,1.438l-.012.014-3.137,3.338a.651.651,0,1,0,.949.891c.009-.009,2.669-2.838,3.1-3.3.035-.037.069-.076.1-.115a4.549,4.549,0,0,0,1.173-3.054v-8.009a.877.877,0,0,1,1.755,0v10.094a5.011,5.011,0,0,1-.93,2.916l-4.919,6.929a.651.651,0,1,0,1.062.754l4.919-6.929a6.306,6.306,0,0,0,1.17-3.67V158.634A2.17,2.17,0,0,0,300.44,156.934Z" transform="translate(-286.58 -156.454)"/></g><g transform="translate(6.081 3.516)"><path class="a" d="M112.222,62.962l-1.158-.277v-.208a2.912,2.912,0,0,0,1.246-2.387V58.585a2.911,2.911,0,0,0-4.8-2.215,3.8,3.8,0,0,0-7.045.005,2.911,2.911,0,0,0-4.81,2.209V60.09A2.912,2.912,0,0,0,96.9,62.478v.208l-1.158.277a3.05,3.05,0,0,0-2.349,2.976v1.216a.651.651,0,0,0,.651.651h2.992c0,.079-.008.158-.008.238v2.341a.651.651,0,0,0,.651.651h3.913a.651.651,0,0,0,0-1.3h-.673V68.388a.651.651,0,0,0-1.3,0v1.346H98.327v-1.69a2.7,2.7,0,0,1,2.074-2.63l1.787-.428,1.2,2.72a.651.651,0,0,0,.6.389h0a.651.651,0,0,0,.6-.389l1.194-2.716,1.781.425a2.7,2.7,0,0,1,2.076,2.63v1.688h-1.288V68.388a.651.651,0,0,0-1.3,0v1.346H106.3a.651.651,0,1,0,0,1.3h3.979a.651.651,0,0,0,.651-.651V68.045c0-.081,0-.161-.008-.24h3a.651.651,0,0,0,.651-.651V65.938A3.05,3.05,0,0,0,112.222,62.962ZM109.4,56.973a1.614,1.614,0,0,1,1.608,1.505H110.1a4.745,4.745,0,0,1-2.183-.532A1.614,1.614,0,0,1,109.4,56.973ZM107.785,60c0-.032,0-.063,0-.1v-.58a6.048,6.048,0,0,0,2.312.46h.909v.31a1.612,1.612,0,1,1-3.223,0Zm-6.3-2.193h0a2.5,2.5,0,0,1,4.97-.4l-1.1-.644a.651.651,0,0,0-.829.143,2.8,2.8,0,0,1-2.155,1.006h-.89Zm-2.92-.83a1.614,1.614,0,0,1,1.48.973,4.746,4.746,0,0,1-2.183.532h-.905A1.614,1.614,0,0,1,98.565,56.973ZM96.953,59.78h.909a6.048,6.048,0,0,0,2.315-.461v.771a1.612,1.612,0,0,1-3.223,0Zm3.145,4.367A3.993,3.993,0,0,0,97.331,66.5H94.692v-.565a1.752,1.752,0,0,1,1.349-1.71l1.658-.4a.651.651,0,0,0,.5-.633V62.98a2.826,2.826,0,0,0,.728,0v.186c0,.01,0,.019,0,.029a.652.652,0,0,0,.529.641l.971.233Zm1.816-1.011a3.055,3.055,0,0,0-.521-.176l-1.163-.279v-.2a2.938,2.938,0,0,0,.564-.515,3.833,3.833,0,0,0,1.12,1.123Zm2.828.957-.762,1.733-.764-1.737v-.465a3.815,3.815,0,0,0,1.525,0Zm-.756-1.693a2.5,2.5,0,0,1-2.5-2.5v-.688h.89a4.1,4.1,0,0,0,2.766-1.069l1.343.789V60A2.5,2.5,0,0,1,103.985,62.4Zm2.058.738V63.1a3.831,3.831,0,0,0,1.129-1.125,2.937,2.937,0,0,0,.56.51v.2l-1.163.279A3.066,3.066,0,0,0,106.043,63.139Zm7.226,3.364h-2.648a3.992,3.992,0,0,0-2.769-2.354l-.327-.078.976-.234a.652.652,0,0,0,.532-.641c0-.005,0-.01,0-.015v-.2a2.826,2.826,0,0,0,.728,0V63.2a.651.651,0,0,0,.5.633l1.658.4a1.752,1.752,0,0,1,1.349,1.71Z" transform="translate(-93.39 -54)"/></g><g transform="translate(16.016 19.249)"><path class="a" d="M247.111,295.86a.651.651,0,1,0,.191.461A.656.656,0,0,0,247.111,295.86Z" transform="translate(-246 -295.67)"/></g><g transform="translate(16.016)"><path class="a" d="M246.644,0a.651.651,0,0,0-.651.651v.974a.651.651,0,0,0,1.3,0V.651A.651.651,0,0,0,246.644,0Z" transform="translate(-245.993)"/></g><g transform="translate(12.475 1.251)"><path class="a" d="M193.393,20.086l-.683-.682a.651.651,0,1,0-.92.921l.683.682a.651.651,0,1,0,.92-.921Z" transform="translate(-191.599 -19.213)"/></g><g transform="translate(18.864 1.268)"><path class="a" d="M291.535,19.66a.651.651,0,0,0-.921,0l-.678.678a.651.651,0,1,0,.921.92l.678-.678A.651.651,0,0,0,291.535,19.66Z" transform="translate(-289.746 -19.469)"/></g></g></svg>