<svg xmlns="http://www.w3.org/2000/svg" width="49.284" height="48.769" viewBox="0 0 49.284 48.769"><defs><style>.a{fill:#c19f67;}</style></defs><g transform="translate(-0.378 -0.42)"><path class="a" d="M49.427,12.969a3.953,3.953,0,0,0-4.62-2.438L42.125,8.895a3.906,3.906,0,0,0-3.358-.33l-9.813,3.571L20.9.749a.782.782,0,0,0-.9-.282l-4.387,1.6a.778.778,0,0,0-.466,1l4.526,12.451L9.909,19.064,4.668,13.2a.777.777,0,0,0-.847-.213L.892,14.056a.778.778,0,0,0-.466,1L4.689,26.77a.779.779,0,0,0,.732.513h.01l16.513-.2a.763.763,0,0,0,.257-.048l1.463-.534L27.93,38.216a.777.777,0,0,0,1,.466l4.394-1.6a.778.778,0,0,0,.51-.8L32.745,23.2,47.1,17.968a3.9,3.9,0,0,0,2.327-5ZM16.87,3.263l3.1-1.128,7.469,10.552L21.13,14.981ZM4.288,21.11,2.156,15.254l1.7-.619,4.474,5Zm24.84,15.842L23.8,22.305l7.1-2.583,1.337,16.1ZM46.567,16.506,32.612,21.587l-.25-3.01a.776.776,0,0,0-.356-.592.786.786,0,0,0-.687-.076l-8.787,3.2a.779.779,0,0,0-.465,1l1.066,2.929-1.339.489-15.828.195L4.822,22.575,39.3,10.03a2.348,2.348,0,0,1,2.018.2l.747.455-2.288.833.533,1.465,3.459-1.259.528.322a.779.779,0,0,0,.666.069,2.339,2.339,0,1,1,1.608,4.393Z" transform="translate(0)"/><path class="a" d="M0,0H1.558V1.559H0Z" transform="translate(34.658 13.377) rotate(-19.993)"/><path class="a" d="M0,0H1.558V1.559H0Z" transform="translate(31.728 14.443) rotate(-19.993)"/><path class="a" d="M0,0H1.558V1.559H0Z" transform="translate(28.799 15.511) rotate(-19.993)"/><path class="a" d="M0,0H1.558V1.559H0Z" transform="translate(25.869 16.578) rotate(-19.993)"/><path class="a" d="M0,0H1.558V1.559H0Z" transform="translate(22.939 17.645) rotate(-19.993)"/><path class="a" d="M0,0H1.558V1.559H0Z" transform="translate(20.009 18.712) rotate(-19.993)"/><path class="a" d="M0,0H1.558V1.559H0Z" transform="translate(17.079 19.779) rotate(-19.993)"/><path class="a" d="M0,0H1.559V1.559H0Z" transform="translate(14.143 20.855) rotate(-19.993)"/><path class="a" d="M0,0H1.559V1.559H0Z" transform="translate(11.213 21.921) rotate(-19.993)"/><path class="a" d="M17.676,43.117H22.5a2.338,2.338,0,1,0,0-1.559H17.676a4.676,4.676,0,1,0,0,9.352H30.924V49.352H17.676a3.117,3.117,0,0,1,0-6.234Zm7.014-1.559a.779.779,0,1,1-.779.779A.78.78,0,0,1,24.69,41.559Z" transform="translate(-2.786 -8.735)"/><path class="a" d="M38,52h1.559v1.559H38Z" transform="translate(-8.303 -11.383)"/><path class="a" d="M43.548,52H36.924v1.559h6.624a1.948,1.948,0,0,1,0,3.9H19v1.559H43.548a3.507,3.507,0,1,0,0-7.014Z" transform="translate(-4.11 -11.383)"/><path class="a" d="M4.338,57a2.338,2.338,0,1,0,2.195,3.117H13.69V58.559H6.532A2.335,2.335,0,0,0,4.338,57Zm0,3.117a.779.779,0,1,1,.779-.779A.78.78,0,0,1,4.338,60.117Z" transform="translate(-0.358 -12.487)"/></g></svg>