<svg xmlns="http://www.w3.org/2000/svg" width="33.5" height="33.498" viewBox="0 0 33.5 33.498"><defs><style>.a{fill:#c19f67;stroke:#c19f67;}</style></defs><g transform="translate(0.5 0.5)"><path class="a" d="M9.109,351.88a3.735,3.735,0,0,0-6.494.41,2.68,2.68,0,1,0,1.567,4.9,3.74,3.74,0,0,0,3.429.084,2.852,2.852,0,0,0,1.424.375,2.885,2.885,0,0,0,.074-5.769Zm-.074,4.5a1.6,1.6,0,0,1-1-.347.635.635,0,0,0-.735-.037,2.465,2.465,0,0,1-2.788-.1.635.635,0,0,0-.829.064,1.41,1.41,0,1,1-1-2.4,1.434,1.434,0,0,1,.243.021.635.635,0,0,0,.712-.429,2.465,2.465,0,0,1,4.549-.335.634.634,0,0,0,.647.346,1.615,1.615,0,1,1,.2,3.217Z" transform="translate(0 -327.954)"/><path class="a" d="M95.025,16.028a4.123,4.123,0,0,0-1.967-1.634,10.552,10.552,0,0,0,.682-3.746,10.728,10.728,0,0,0-.17-1.9.635.635,0,1,0-1.249.226,9.459,9.459,0,0,1,.15,1.677,9.293,9.293,0,0,1-.664,3.464c-.095-.006-.19-.01-.286-.01a4.139,4.139,0,0,0-3.76,2.391,2.938,2.938,0,0,0-.981.175A40.117,40.117,0,0,0,88.154,6.235a6.2,6.2,0,0,0-1.809-4.381,9.32,9.32,0,0,1,3.593,2.39.635.635,0,1,0,.926-.868A10.675,10.675,0,0,0,83.106.014H80.761a10.634,10.634,0,0,0-8.086,17.54l6.8,7.958V27.18h-.084a.635.635,0,0,0-.635.635v1.523a3.174,3.174,0,1,0,6.348,0V27.815a.635.635,0,0,0-.635-.635H84.38V25.531l2.736-3.2a2.952,2.952,0,0,0,2.361-.46,4.157,4.157,0,0,0,3.9.1,3.151,3.151,0,0,0,1.612.437,3.187,3.187,0,0,0,.037-6.375Zm-10.31,3.029H82.568V1.326a4.958,4.958,0,0,1,4.316,4.909A38.853,38.853,0,0,1,84.715,19.057Zm-5.563,0a38.852,38.852,0,0,1-2.17-12.822A4.958,4.958,0,0,1,81.3,1.326V19.057ZM71.4,10.648A9.38,9.38,0,0,1,77.51,1.866a6.2,6.2,0,0,0-1.8,4.369,40.114,40.114,0,0,0,2.1,12.822H75.628L73.64,16.73A9.372,9.372,0,0,1,71.4,10.648ZM83.83,29.338a1.9,1.9,0,0,1-3.809,0V28.45H83.83ZM80.74,27.18V25.912h2.371V27.18Zm2.729-2.537H80.4l-3.686-4.316h8.246a2.965,2.965,0,0,0,.978,1.428Zm11.519-3.51A1.9,1.9,0,0,1,93.8,20.72a.635.635,0,0,0-.735-.037,2.882,2.882,0,0,1-3.259-.115.635.635,0,0,0-.829.064,1.685,1.685,0,1,1-1.2-2.87,1.712,1.712,0,0,1,.29.025.635.635,0,0,0,.712-.429,2.882,2.882,0,0,1,5.318-.392.635.635,0,0,0,.647.346,1.918,1.918,0,1,1,.242,3.82Z" transform="translate(-65.676 -0.014)"/><path class="a" d="M405.954,87.95a.635.635,0,1,0-.449-.186A.638.638,0,0,0,405.954,87.95Z" transform="translate(-379.591 -81.179)"/></g></svg>