<svg xmlns="http://www.w3.org/2000/svg" width="21.418" height="21.418" viewBox="0 0 21.418 21.418"><defs><style>.a{fill:#042359;}</style></defs><path class="a" d="M42,21.836h5.527V20.8h-.691V18.727h-.345V17H45.8v1.727h-.345V20.8H42Z" transform="translate(-27.836 -11.473)"/><path class="a" d="M33.691,3H33V4.72l.691-.138Z" transform="translate(-21.945 -2.309)"/><path class="a" d="M37.691,1H37V3.135L37.691,3Z" transform="translate(-24.563 -1)"/><path class="a" d="M41.691,3H41V4.168l.691-.138Z" transform="translate(-27.182 -2.309)"/><path class="a" d="M31.677,23.532a2.054,2.054,0,0,1,.777-.152V15.435H32.8V13.708h2.418V7.22L29,8.464V22.777a2.765,2.765,0,0,1,2.677.756ZM32.8,9.562h1.382v2.073H32.8Zm-2.764,0h1.382v2.073H30.036Zm0,3.455h1.382v2.073H30.036Zm0,3.455h1.382v2.073H30.036Zm0,3.455h1.382V22H30.036Z" transform="translate(-19.327 -5.071)"/><path class="a" d="M45.691,42.182a2.759,2.759,0,0,1,.691.089V37H45v5.273A2.741,2.741,0,0,1,45.691,42.182Z" transform="translate(-29.8 -24.564)"/><path class="a" d="M52.012,43.564h.025a2.725,2.725,0,0,1,.345.027V37H51v5.551A2.757,2.757,0,0,1,52.012,43.564Z" transform="translate(-33.727 -24.564)"/><path class="a" d="M47.218,41.562V33H41v7.381c.028.01.058.015.086.026a2.759,2.759,0,0,1,.6-.469V33.691h4.836v7.465a2.772,2.772,0,0,1,.691.406Z" transform="translate(-27.182 -21.945)"/><path class="a" d="M21.1,32.2a2.061,2.061,0,0,0-2.239-.987,2.072,2.072,0,0,0-3.786-.359,1.37,1.37,0,0,0-1.9,0,2.073,2.073,0,0,0-3.8.387,1.375,1.375,0,0,0-.438-.077l-.178.012A1.381,1.381,0,0,0,6.226,32.2h-.7a2.071,2.071,0,0,1,3.5-1.818,2.74,2.74,0,0,1,.959-.923V17H5.145v3.655a2.967,2.967,0,0,1,.691.383v-.583h.691v.691H5.968a3.2,3.2,0,0,1,.363.35,2.839,2.839,0,0,1,1.2.341h.377v.242a3.565,3.565,0,0,1,1.382,2.867A3.454,3.454,0,0,1,7.218,28.2v.585L5.145,31.2v1H4.455V30.946l2.073-2.418v-.85A2.674,2.674,0,0,0,8.6,24.945a2.612,2.612,0,0,0-2.418-2.764c-.059,0-.12,0-.182.01a2.318,2.318,0,0,0-1.891-1.046,2.612,2.612,0,0,0-2.418,2.764,2.674,2.674,0,0,0,2.073,2.732V23.564h.691v3.309a2.318,2.318,0,0,0,1.382.8v.595L4.455,29.884V26.872c-.057-.067-.112-.136-.164-.21-.06.005-.12.011-.182.011a2.12,2.12,0,0,1-.345-.031v.45a1.54,1.54,0,0,0-1.036-.419A1.926,1.926,0,0,0,1,28.745a2.02,2.02,0,0,0,1.382,2.031V32.2H1v.691H22.418V32.2ZM6.527,19.764H5.836v-.691h.691Zm0-1.382H5.836v-.691h.691Zm1.382,2.764H7.218v-.691h.691Zm0-1.382H7.218v-.691h.691Zm0-1.382H7.218v-.691h.691Zm.691-.691h.691v.691H8.6Zm0,1.382h.691v.691H8.6Zm0,1.382h.691v.691H8.6Zm0,2.073v-.691h.691v.691ZM3.073,30.776a1.6,1.6,0,0,0,.691-.377v1.8H3.073Z" transform="translate(-1 -11.473)"/></svg>