<svg xmlns="http://www.w3.org/2000/svg" xmlns:xlink="http://www.w3.org/1999/xlink" width="37.075" height="48" viewBox="0 0 37.075 48"><defs><style>.a{fill:#c19f67;}.b{filter:url(#a);}</style><filter id="a" x="0" y="0" width="37.075" height="48" filterUnits="userSpaceOnUse"><feOffset dx="3" dy="1" input="SourceAlpha"/><feGaussianBlur stdDeviation="2" result="b"/><feFlood flood-color="#fff" flood-opacity="0.62"/><feComposite operator="in" in2="b"/><feComposite in="SourceGraphic"/></filter></defs><g transform="translate(3 5)"><g class="b" transform="matrix(1, 0, 0, 1, -3, -5)"><path class="a" d="M0,36H0V0H25.075V36L11.832,28.223,0,36ZM7.911,6.4a.9.9,0,0,0-.88,1.1l1.093,4.8-3.7,3.238a.9.9,0,0,0,.513,1.574l4.9.444,1.935,4.52a.9.9,0,0,0,1.657,0l1.936-4.52,4.894-.444a.9.9,0,0,0,.514-1.574l-3.7-3.238,1.092-4.8a.9.9,0,0,0-.879-1.1.913.913,0,0,0-.464.127l-4.22,2.519L8.374,6.527A.9.9,0,0,0,7.911,6.4Z" transform="translate(3 5)"/></g></g></svg>