<svg xmlns="http://www.w3.org/2000/svg" width="30.11" height="30.11" viewBox="0 0 30.11 30.11"><defs><style>.a{fill:#042359;}</style></defs><g transform="translate(0)"><path class="a" d="M29.522,17.172H25.406V15.055a.588.588,0,0,0-.45-.572l-2.339-.564a7.645,7.645,0,0,0-6.973-6.487V5.881h6.469a.588.588,0,0,0,.416-1L20.592,2.94,22.528,1a.588.588,0,0,0-.416-1H15.055a.588.588,0,0,0-.588.588V7.433A7.645,7.645,0,0,0,7.495,13.92l-2.339.564a.588.588,0,0,0-.45.572v2.117H.588A.588.588,0,0,0,0,17.76V29.522a.588.588,0,0,0,.588.588H12.409a.588.588,0,1,0,0-1.176H5.881V27.758H24.229v1.176H17.7a.588.588,0,1,0,0,1.176H29.522a.588.588,0,0,0,.588-.588V17.76A.588.588,0,0,0,29.522,17.172Zm-13.879-16h5.049L19.344,2.525a.588.588,0,0,0,0,.832L20.693,4.7H15.643Zm-.588,7.41a6.433,6.433,0,0,1,6.31,5.032l-6.172-1.487a.588.588,0,0,0-.276,0L8.745,13.618a6.433,6.433,0,0,1,6.31-5.032ZM5.881,15.518l9.174-2.211,9.174,2.211v1.654H5.881Zm3.529,2.83v8.233H8.233V18.349Zm1.176,0h2.705v8.233H10.586Zm3.881,0h1.176v8.233H14.467Zm2.352,0h2.705v8.233H16.819Zm3.881,0h1.176v8.233H20.7ZM1.176,28.934V18.349H7.057v8.233H5.881V24.818a.588.588,0,0,0-.588-.588H2.94a.588.588,0,0,0-.588.588V27.17a.588.588,0,0,0,.588.588H4.7v1.176ZM4.7,26.582H3.529V25.406H4.7Zm24.229,2.352H25.406V27.758H27.17a.588.588,0,0,0,.588-.588V24.818a.588.588,0,0,0-.588-.588H24.818a.588.588,0,0,0-.588.588v1.764H23.053V18.349h5.881Zm-3.529-2.352V25.406h1.176v1.176Z"/><path class="a" d="M412,332.588v2.352a.588.588,0,0,0,.588.588h2.352a.588.588,0,0,0,.588-.588v-2.352a.588.588,0,0,0-.588-.588h-2.352A.588.588,0,0,0,412,332.588Zm1.176.588h1.176v1.176h-1.176Z" transform="translate(-387.771 -312.475)"/><path class="a" d="M40.588,335.529H42.94a.588.588,0,0,0,.588-.588v-2.352A.588.588,0,0,0,42.94,332H40.588a.588.588,0,0,0-.588.588v2.352A.588.588,0,0,0,40.588,335.529Zm.588-2.352h1.176v1.176H41.176Z" transform="translate(-37.648 -312.475)"/><circle class="a" transform="translate(15.71 30.11)"/></g></svg>