<svg xmlns="http://www.w3.org/2000/svg" width="30.626" height="25.673" viewBox="0 0 30.626 25.673"><defs><style>.a{fill:#042359;stroke:#042359;stroke-width:0.5px;}</style></defs><g transform="translate(0.224 -4.685)"><path class="a" d="M29.792,103.313c-4.557-.967-5.41,1.22-6.162,3.15a4.442,4.442,0,0,1-1.892,2.684,3.987,3.987,0,0,1-3.454.389l.66-.424h0l.655-.421a2.039,2.039,0,0,0,.612-2.814l-2.3-3.574a2.039,2.039,0,0,0-2.814-.612l-2.323,1.493a1.448,1.448,0,0,1-1.587,0A9.936,9.936,0,0,1,6.746,96.26,1.448,1.448,0,0,1,7.4,94.814l2.323-1.493a2.036,2.036,0,0,0,.612-2.814l-2.3-3.575a2.039,2.039,0,0,0-2.814-.612l-1.9,1.221A7.137,7.137,0,0,0,.557,96.213a40.825,40.825,0,0,0,7.925,12.419.441.441,0,0,0,.645-.6A39.932,39.932,0,0,1,1.374,95.882a6.255,6.255,0,0,1,2.427-7.6l.72-.463a10.631,10.631,0,0,0,.7,1.912.441.441,0,1,0,.794-.383A9.831,9.831,0,0,1,5.3,87.317l.4-.255a1.156,1.156,0,0,1,1.6.347l2.3,3.575a1.154,1.154,0,0,1-.347,1.6l-.393.252A10.6,10.6,0,0,1,6.94,90.873a.441.441,0,0,0-.708.526,11.364,11.364,0,0,0,1.842,1.934l-1.149.739A2.329,2.329,0,0,0,5.876,96.4a10.786,10.786,0,0,0,4.827,7.51,2.33,2.33,0,0,0,2.554.013l1.142-.734a10.581,10.581,0,0,0,3.553,5.512l-.728.468a6.256,6.256,0,0,1-6.847-.045.441.441,0,1,0-.488.734,7.135,7.135,0,0,0,7.546.215,3.637,3.637,0,0,0,2.031.575,5.9,5.9,0,0,0,2.672-.715,5.248,5.248,0,0,0,2.315-3.15,4.915,4.915,0,0,1,1.389-2.3c.288-.214,1.165-.864,3.768-.311a.441.441,0,1,0,.183-.863Zm-14.61-.627.4-.255a1.156,1.156,0,0,1,1.6.347l2.3,3.574a1.156,1.156,0,0,1-.347,1.6l-.393.252A9.765,9.765,0,0,1,15.182,102.686Z" transform="translate(0 -80.941)"/></g></svg>