<svg xmlns="http://www.w3.org/2000/svg" width="12.314" height="17.513" viewBox="0 0 12.314 17.513"><defs><style>.a{fill:#042359;}</style></defs><g transform="translate(0.328 5.592)"><g transform="translate(0)"><path class="a" d="M91.993,167.092,90.113,170l-1.794.768A12.081,12.081,0,0,1,85.6,166.3l1.074-2,1.727-.8a3.4,3.4,0,0,0-.051.564,3.087,3.087,0,0,0,3.078,3.078A3.4,3.4,0,0,0,91.993,167.092Z" transform="translate(-85.6 -163.5)"/></g></g><path class="a" d="M243.092,18.018a3.36,3.36,0,0,0,.051-.561,3.088,3.088,0,0,0-3.075-3.078h0a3.4,3.4,0,0,0-.564.051l2.73-2.73a6.142,6.142,0,0,1,3.592,3.592l-2.73,2.73S243.092,18.019,243.092,18.018Z" transform="translate(-233.907 -11.3)"/><path class="a" d="M261.786,15.292l-.934,1.823-1.8.906s0,0,0,0a3.357,3.357,0,0,0,.051-.561,3.088,3.088,0,0,0-3.075-3.078h0v-.514l.615-1.367,1.549-.8A6.142,6.142,0,0,1,261.786,15.292Z" transform="translate(-249.872 -11.3)"/><g transform="translate(3.048 3.992)"><path class="a" d="M173.964,116.7l-2.73,2.73a3.11,3.11,0,0,1-2.463,2.463h0l-2.971,2.971-.7.7c.174.195.328.369.493.554,1.129,1.283,2.1,2.459,2.1,3.588a.513.513,0,1,0,1.026,0c0-1.129.975-2.305,2.1-3.588,1.58-1.775,3.54-3.992,3.54-7.255A5.88,5.88,0,0,0,173.964,116.7Z" transform="translate(-165.098 -116.7)"/><path class="a" d="M261.787,116.7l-2.73,2.729h0a3.11,3.11,0,0,1-2.463,2.463h0l-.563.563v7.765a.508.508,0,0,0,.512-.513c0-1.129.975-2.305,2.1-3.588,1.58-1.775,3.54-3.992,3.54-7.255A5.88,5.88,0,0,0,261.787,116.7Z" transform="translate(-252.921 -116.7)"/></g><g transform="translate(6.158 9.184)"><path class="a" d="M256.031,269.063l.563-.563a3.408,3.408,0,0,1-.563.051Z" transform="translate(-256.031 -268.5)"/></g><path class="a" d="M135.316.4l-2.73,2.73a3.114,3.114,0,0,0-1.611.852l-1.587-.664L128.8,1.806A6.1,6.1,0,0,1,133.151,0,5.88,5.88,0,0,1,135.316.4Z" transform="translate(-126.994 0)"/><path class="a" d="M256.031,2.567,258.2.4a5.879,5.879,0,0,0-2.164-.4V2.567Z" transform="translate(-249.873 -0.003)"/><path class="a" d="M79.981,54.975a3.115,3.115,0,0,0-.852,1.611l-2.8,2.8A7.747,7.747,0,0,1,76,57.151,6.1,6.1,0,0,1,77.806,52.8Z" transform="translate(-76 -50.994)"/></svg>