<svg xmlns="http://www.w3.org/2000/svg" width="32.258" height="7.632" viewBox="0 0 32.258 7.632"><defs><style>.a{fill:#fff;}.b{fill:#042359;}</style></defs><g transform="translate(0 0)"><g transform="translate(0 0)"><path class="a" d="M3.816,192a3.816,3.816,0,1,0,3.816,3.816A3.821,3.821,0,0,0,3.816,192Zm0,6.36a2.544,2.544,0,1,1,2.544-2.544A2.547,2.547,0,0,1,3.816,198.36Z" transform="translate(0 -192)"/><g transform="translate(11.449)"><path class="a" d="M195.816,192a3.816,3.816,0,1,0,3.816,3.816A3.821,3.821,0,0,0,195.816,192Zm0,6.36a2.544,2.544,0,1,1,2.544-2.544A2.547,2.547,0,0,1,195.816,198.36Z" transform="translate(-192 -192)"/></g><g transform="translate(22.897)"><path class="a" d="M387.816,192a3.816,3.816,0,1,0,3.816,3.816A3.821,3.821,0,0,0,387.816,192Zm0,6.36a2.544,2.544,0,1,1,2.544-2.544A2.547,2.547,0,0,1,387.816,198.36Z" transform="translate(-384 -192)"/></g></g><g transform="translate(1.728 0)"><path class="b" d="M3.816,192a3.816,3.816,0,1,0,3.816,3.816A3.821,3.821,0,0,0,3.816,192Zm0,6.36a2.544,2.544,0,1,1,2.544-2.544A2.547,2.547,0,0,1,3.816,198.36Z" transform="translate(0 -192)"/><g transform="translate(11.449)"><path class="b" d="M195.816,192a3.816,3.816,0,1,0,3.816,3.816A3.821,3.821,0,0,0,195.816,192Zm0,6.36a2.544,2.544,0,1,1,2.544-2.544A2.547,2.547,0,0,1,195.816,198.36Z" transform="translate(-192 -192)"/></g><g transform="translate(22.897)"><path class="b" d="M387.816,192a3.816,3.816,0,1,0,3.816,3.816A3.821,3.821,0,0,0,387.816,192Zm0,6.36a2.544,2.544,0,1,1,2.544-2.544A2.547,2.547,0,0,1,387.816,198.36Z" transform="translate(-384 -192)"/></g></g></g></svg>