<svg xmlns="http://www.w3.org/2000/svg" width="40" height="39.468" viewBox="0 0 40 39.468"><defs><style>.a{fill:#c19f67;}</style></defs><g transform="translate(0)"><path class="a" d="M39.836,108.628l-6.695-8.7a.784.784,0,0,0-1.042-.183L27.776,102.5H22.139a.777.777,0,0,0-.216.036l-4.371,1.258-4.536-1.241-4.407-2.8a.784.784,0,0,0-1.031.169L.173,109.089a.784.784,0,0,0,.1,1.087l3.881,3.34,3.482,4.692a2.769,2.769,0,0,0,1.742,4.652,2.79,2.79,0,0,0-.032.424,2.772,2.772,0,0,0,2.772,2.772h.03c0,.019,0,.038,0,.056a2.772,2.772,0,0,0,2.772,2.772,2.828,2.828,0,0,0,.433-.034,2.772,2.772,0,0,0,4.717,1.688l.424-.424.178.143a2.771,2.771,0,0,0,4.7-2.036,2.767,2.767,0,0,0,2.814-2.812,2.77,2.77,0,0,0,2.813-2.815,2.77,2.77,0,0,0,2.368-4.28L35.9,112.99l3.822-3.289a.784.784,0,0,0,.11-1.073Zm-31.478-7.18,3.169,2.015-6.894,8.4-2.762-2.378Zm.447,17.806.956-.956c.029-.029.06-.056.091-.082a1.2,1.2,0,0,1,.653-.265h.02c.034,0,.068,0,.1,0a1.2,1.2,0,0,1,.858.377,1.233,1.233,0,0,1-.053,1.706l-.927.927a1.2,1.2,0,1,1-1.7-1.7Zm2.461,4.882a1.2,1.2,0,0,1,0-1.7l1.855-1.855a1.216,1.216,0,0,1,1.368-.236,1.2,1.2,0,0,1,.663,1.242,1.27,1.27,0,0,1-.358.725l-1.825,1.825a1.2,1.2,0,0,1-1.7,0Zm2.8,2.827a1.2,1.2,0,0,1,0-1.7l1.854-1.855a1.217,1.217,0,0,1,1.454-.191,1.2,1.2,0,0,1,.574,1.216,1.271,1.271,0,0,1-.356.706l-1.825,1.825a1.2,1.2,0,0,1-1.7,0Zm3.19,2.466a1.2,1.2,0,0,1,0-1.7l.956-.956c.029-.029.059-.056.09-.082l0,0a1.2,1.2,0,0,1,.533-.248l.014,0c.034-.006.068-.011.1-.014l.042,0c.028,0,.056,0,.084,0a1.2,1.2,0,0,1,.858.377,1.085,1.085,0,0,1,.078.091,1.242,1.242,0,0,1-.135,1.62l-.923.923a1.2,1.2,0,0,1-1.7,0Zm14.632-8.753a1.2,1.2,0,0,1-1.7,0,.714.714,0,0,0-.053-.048l-5.043-5.1a.784.784,0,0,0-1.115,1.1l5.1,5.151,0,0a1.2,1.2,0,1,1-1.7,1.7l-3.41-3.446a.784.784,0,1,0-1.115,1.1l3.358,3.393a.744.744,0,0,0,.055.061,1.2,1.2,0,1,1-1.7,1.7L22.7,124.422a.784.784,0,0,0-1.115,1.1l1.809,1.828a.7.7,0,0,0,.055.062,1.2,1.2,0,1,1-1.7,1.7,1.735,1.735,0,0,0-.178-.142c-.051-.039-.065-.066-.039-.128s.065-.12.091-.184.052-.144.074-.217a2.828,2.828,0,0,0,.1-1.207,2.744,2.744,0,0,0-2.338-2.361,2.8,2.8,0,0,0-.672-2.524,2.751,2.751,0,0,0-1.976-.867h-.083a2.745,2.745,0,0,0-2.717-2.827,2.821,2.821,0,0,0-.669.071,2.745,2.745,0,0,0-2.69-2.354,2.778,2.778,0,0,0-1.894.712L5.726,113l7.253-8.837,2.312.632-3.019,5.327a2.772,2.772,0,0,0,1.045,3.778q.06.034.122.065l.009,0a2.79,2.79,0,0,0,.333.139,2.772,2.772,0,0,0,3.314-1.254l1.962-3.462,3.5.248,9.328,9.328a1.205,1.205,0,0,1,0,1.7Zm.325-3.6-8.751-8.751a.7.7,0,0,0-.052-.048.785.785,0,0,0-.447-.18l-4.289-.3a.8.8,0,0,0-.738.4l-2.206,3.893a1.2,1.2,0,1,1-2.094-1.187l2.945-5.2,1.193-.343.023-.008,4.453-1.286h5.381L34.35,112.6Zm3.164-5.706-6.212-7.9,3.17-2.016,5.8,7.54Zm0,0" transform="translate(0.001 -91.881)"/><path class="a" d="M300.929,35.8a.782.782,0,0,0,.555-.23l5.358-5.358a.784.784,0,0,0-1.109-1.109l-5.358,5.358a.784.784,0,0,0,.555,1.339Zm0,0" transform="translate(-276.696 -26.654)"/><path class="a" d="M128.783,35.568a.784.784,0,0,0,1.109-1.109L124.535,29.1a.784.784,0,0,0-1.109,1.109Zm0,0" transform="translate(-113.571 -26.655)"/><path class="a" d="M246.745,46.7a.784.784,0,0,0,.784-.784V41.483a.784.784,0,1,0-1.569,0v4.434A.784.784,0,0,0,246.745,46.7Zm0,0" transform="translate(-226.745 -37.558)"/><path class="a" d="M246.044,1.582a.784.784,0,1,0,1.2-.922.784.784,0,0,0-1.2.922Zm0,0" transform="translate(-226.768 -0.5)"/></g></svg>