<svg xmlns="http://www.w3.org/2000/svg" width="27.751" height="27.751" viewBox="0 0 27.751 27.751"><defs><style>.a{fill:#042359;}</style></defs><g transform="translate(5.231 7.899)"><path class="a" d="M99.662,145.733h-2.6a.542.542,0,0,0-.542.542v3.035a.542.542,0,0,0,.542.542h2.6a.542.542,0,0,0,.542-.542v-3.035A.542.542,0,0,0,99.662,145.733Zm-.542,3.035H97.6v-1.951H99.12Z" transform="translate(-96.518 -145.733)"/></g><g transform="translate(5.231 13.969)"><path class="a" d="M99.662,257.733h-2.6a.542.542,0,0,0-.542.542v3.035a.542.542,0,0,0,.542.542h2.6a.542.542,0,0,0,.542-.542v-3.035A.542.542,0,0,0,99.662,257.733Zm-.542,3.035H97.6v-1.951H99.12Z" transform="translate(-96.518 -257.733)"/></g><g transform="translate(5.231 20.04)"><path class="a" d="M99.662,369.733h-2.6a.542.542,0,0,0-.542.542v3.035a.542.542,0,0,0,.542.542h2.6a.542.542,0,0,0,.542-.542v-3.035A.542.542,0,0,0,99.662,369.733Zm-.542,3.035H97.6v-1.951H99.12Z" transform="translate(-96.518 -369.733)"/></g><g transform="translate(19.377 20.04)"><path class="a" d="M360.641,369.733h-2.6a.542.542,0,0,0-.542.542v3.035a.542.542,0,0,0,.542.542h2.6a.542.542,0,0,0,.542-.542v-3.035A.542.542,0,0,0,360.641,369.733Zm-.542,3.035h-1.518v-1.951H360.1Z" transform="translate(-357.497 -369.733)"/></g><g transform="translate(9.946 7.899)"><path class="a" d="M186.655,145.733h-2.6a.542.542,0,0,0-.542.542v3.035a.542.542,0,0,0,.542.542h2.6a.542.542,0,0,0,.542-.542v-3.035A.542.542,0,0,0,186.655,145.733Zm-.542,3.035H184.6v-1.951h1.518Z" transform="translate(-183.511 -145.733)"/></g><g transform="translate(14.661 7.899)"><path class="a" d="M273.647,145.733h-2.6a.542.542,0,0,0-.542.542v3.035a.542.542,0,0,0,.542.542h2.6a.542.542,0,0,0,.542-.542v-3.035A.542.542,0,0,0,273.647,145.733Zm-.542,3.035h-1.518v-1.951H273.1Z" transform="translate(-270.503 -145.733)"/></g><g transform="translate(9.946 13.969)"><path class="a" d="M186.655,257.733h-2.6a.542.542,0,0,0-.542.542v3.035a.542.542,0,0,0,.542.542h2.6a.542.542,0,0,0,.542-.542v-3.035A.542.542,0,0,0,186.655,257.733Zm-.542,3.035H184.6v-1.951h1.518Z" transform="translate(-183.511 -257.733)"/></g><g transform="translate(14.661 13.969)"><path class="a" d="M273.647,257.733h-2.6a.542.542,0,0,0-.542.542v3.035a.542.542,0,0,0,.542.542h2.6a.542.542,0,0,0,.542-.542v-3.035A.542.542,0,0,0,273.647,257.733Zm-.542,3.035h-1.518v-1.951H273.1Z" transform="translate(-270.503 -257.733)"/></g><g transform="translate(19.377 7.899)"><path class="a" d="M360.641,145.733h-2.6a.542.542,0,0,0-.542.542v3.035a.542.542,0,0,0,.542.542h2.6a.542.542,0,0,0,.542-.542v-3.035A.542.542,0,0,0,360.641,145.733Zm-.542,3.035h-1.518v-1.951H360.1Z" transform="translate(-357.497 -145.733)"/></g><g transform="translate(19.377 13.969)"><path class="a" d="M360.641,257.733h-2.6a.542.542,0,0,0-.542.542v3.035a.542.542,0,0,0,.542.542h2.6a.542.542,0,0,0,.542-.542v-3.035A.542.542,0,0,0,360.641,257.733Zm-.542,3.035h-1.518v-1.951H360.1Z" transform="translate(-357.497 -257.733)"/></g><path class="a" d="M27.209,26.667H25.176V5.64a.542.542,0,0,0-.542-.542H21.625V3.144a.542.542,0,0,0-.542-.542H18.1V.542A.542.542,0,0,0,17.561,0H10.19a.542.542,0,0,0-.542.542V2.6H6.667a.542.542,0,0,0-.542.542V5.1H3.117a.542.542,0,0,0-.542.542V26.667H.542a.542.542,0,1,0,0,1.084H27.209a.542.542,0,1,0,0-1.084ZM10.732,1.084h6.287V2.6H10.732Zm5.42,25.583H12.4l3.75-3.75Zm0-5.28c-.012.01-.024.021-.035.032L11.6,25.936v-2.3l3.477-3.477h1.076Zm-4.553.719V20.163h1.943Zm12.493,4.561H17.236v-6.5h.19a.542.542,0,0,0,0-1.084h-7.1a.542.542,0,1,0,0,1.084h.19v6.5H3.659V6.182H9.676a.542.542,0,0,0,0-1.084H7.209V3.686H20.541V5.1H13.958a.542.542,0,0,0,0,1.084H24.092V26.667Z"/><g transform="translate(11.247 5.098)"><path class="a" d="M208.435,94.219a.542.542,0,1,0,.159.383A.546.546,0,0,0,208.435,94.219Z" transform="translate(-207.51 -94.06)"/></g></svg>