<svg xmlns="http://www.w3.org/2000/svg" width="13.287" height="13.315" viewBox="0 0 13.287 13.315"><defs><style>.a{fill:#042359;}</style></defs><path class="a" d="M13.478,9.772,11.62,7.914a1.236,1.236,0,0,0-2.057.465,1.265,1.265,0,0,1-1.46.8A5.73,5.73,0,0,1,4.652,5.724a1.2,1.2,0,0,1,.8-1.46,1.236,1.236,0,0,0,.465-2.057L4.054.348a1.325,1.325,0,0,0-1.792,0L1,1.609c-1.261,1.327.133,4.844,3.252,7.963s6.636,4.579,7.963,3.252l1.261-1.261A1.325,1.325,0,0,0,13.478,9.772Z" transform="translate(-0.539 0)"/></svg>