<svg xmlns="http://www.w3.org/2000/svg" width="34.034" height="33.678" viewBox="0 0 34.034 33.678"><defs><style>.a{fill:#c19f67;}</style></defs><g transform="translate(-0.378 -0.42)"><path class="a" d="M34.25,9.086A2.73,2.73,0,0,0,31.059,7.4l-1.852-1.13a2.7,2.7,0,0,0-2.319-.228L20.111,8.51,14.547.647a.54.54,0,0,0-.623-.195l-3.03,1.1a.537.537,0,0,0-.322.689l3.126,8.6L6.96,13.3,3.341,9.247A.537.537,0,0,0,2.756,9.1L.733,9.836a.537.537,0,0,0-.322.689l2.944,8.091a.538.538,0,0,0,.505.354h.007l11.4-.14a.527.527,0,0,0,.178-.033l1.01-.369L19.4,26.521a.536.536,0,0,0,.689.322l3.035-1.1a.537.537,0,0,0,.352-.55l-.751-9.04,9.913-3.61A2.694,2.694,0,0,0,34.25,9.086Zm-22.482-6.7L13.906,1.6l5.158,7.287-4.355,1.584ZM3.078,14.708,1.606,10.664l1.175-.427,3.09,3.455Zm17.154,10.94L16.55,15.533l4.9-1.783.923,11.118ZM32.275,11.528l-9.637,3.509-.173-2.079a.536.536,0,0,0-.246-.409.543.543,0,0,0-.474-.053l-6.068,2.209a.538.538,0,0,0-.321.69l.736,2.022-.925.337L4.236,17.89l-.789-2.17L27.255,7.057a1.622,1.622,0,0,1,1.394.136l.516.314-1.58.575.368,1.012,2.388-.869.364.222a.538.538,0,0,0,.46.048,1.615,1.615,0,1,1,1.11,3.034Z" transform="translate(0 0)"/><path class="a" d="M0,0H1.076V1.076H0Z" transform="translate(24.051 9.368) rotate(-19.993)"/><path class="a" d="M0,0H1.076V1.076H0Z" transform="translate(22.027 10.104) rotate(-19.993)"/><path class="a" d="M0,0H1.076V1.076H0Z" transform="translate(20.005 10.842) rotate(-19.993)"/><path class="a" d="M0,0H1.076V1.076H0Z" transform="translate(17.981 11.578) rotate(-19.993)"/><path class="a" d="M0,0H1.076V1.076H0Z" transform="translate(15.958 12.315) rotate(-19.993)"/><path class="a" d="M0,0H1.076V1.076H0Z" transform="translate(13.935 13.052) rotate(-19.993)"/><path class="a" d="M0,0H1.076V1.076H0Z" transform="translate(11.912 13.789) rotate(-19.993)"/><path class="a" d="M0,0H1.076V1.076H0Z" transform="translate(9.884 14.532) rotate(-19.993)"/><path class="a" d="M0,0H1.076V1.076H0Z" transform="translate(7.86 15.268) rotate(-19.993)"/><path class="a" d="M16.229,42.153h3.328a1.615,1.615,0,1,0,0-1.076H16.229a3.229,3.229,0,1,0,0,6.458h9.149V46.458H16.229a2.153,2.153,0,0,1,0-4.305Zm4.843-1.076a.538.538,0,1,1-.538.538A.539.539,0,0,1,21.072,41.076Z" transform="translate(-5.829 -18.279)"/><path class="a" d="M38,52h1.076v1.076H38Z" transform="translate(-17.375 -23.821)"/><path class="a" d="M35.952,52H31.378v1.076h4.574a1.345,1.345,0,1,1,0,2.691H19v1.076H35.952a2.422,2.422,0,0,0,0-4.843Z" transform="translate(-8.6 -23.821)"/><path class="a" d="M3.614,57A1.615,1.615,0,1,0,5.13,59.153h4.942V58.076H5.13A1.612,1.612,0,0,0,3.614,57Zm0,2.153a.538.538,0,1,1,.538-.538A.539.539,0,0,1,3.614,59.153Z" transform="translate(-0.749 -26.131)"/></g></svg>